<?xml version="1.0" encoding="utf-8"?>
<!-- Generator: Adobe Illustrator 21.1.0, SVG Export Plug-In . SVG Version: 6.00 Build 0)  -->
<svg version="1.1" id="Layer_1" xmlns="http://www.w3.org/2000/svg" xmlns:xlink="http://www.w3.org/1999/xlink" x="0px" y="0px"
	 viewBox="0 0 1920 1080" style="enable-background:new 0 0 1920 1080;" xml:space="preserve">
<style type="text/css">
	.st0{fill:#DCC587;}
	.st1{fill:#2B3049;}
	.st2{fill:#60A56B;}
	.st3{opacity:0.1;fill:url(#SVGID_1_);}
	.st4{opacity:9.000000e-02;fill:url(#SVGID_2_);}
	.st5{opacity:0.1;fill:url(#SVGID_3_);}
	.st6{opacity:0.1;}
	.st7{fill:url(#SVGID_4_);}
	.st8{opacity:0.35;fill:#DCC587;}
	.st9{opacity:0.1;fill:url(#SVGID_5_);}
	.st10{opacity:0.1;fill:url(#SVGID_6_);}
</style>
<symbol  id="Sparkle" viewBox="-2 -2 4 4">
	<g>
		<rect x="-2" y="-0.5" class="st0" width="4" height="1"/>
	</g>
	<g>
		<rect x="-0.5" y="-2" class="st0" width="1" height="4"/>
	</g>
</symbol>
<rect class="st1" width="1920" height="1080"/>
<path class="st2" d="M1010,432"/>
<g>
	
		<use xlink:href="#Sparkle"  width="4" height="4" x="-2" y="-2" transform="matrix(1 0 0 -1 122.245 141.3443)" style="overflow:visible;"/>
	
		<use xlink:href="#Sparkle"  width="4" height="4" x="-2" y="-2" transform="matrix(1 0 0 -1 125.6831 135.9485)" style="overflow:visible;"/>
	
		<use xlink:href="#Sparkle"  width="4" height="4" x="-2" y="-2" transform="matrix(1 0 0 -1 121.7111 288.8282)" style="overflow:visible;"/>
	
		<use xlink:href="#Sparkle"  width="4" height="4" x="-2" y="-2" transform="matrix(1 0 0 -1 414.6389 172.2413)" style="overflow:visible;"/>
	
		<use xlink:href="#Sparkle"  width="4" height="4" x="-2" y="-2" transform="matrix(1 0 0 -1 583.2073 218.3091)" style="overflow:visible;"/>
	
		<use xlink:href="#Sparkle"  width="4" height="4" x="-2" y="-2" transform="matrix(1 0 0 -1 476.9747 523.1392)" style="overflow:visible;"/>
	
		<use xlink:href="#Sparkle"  width="4" height="4" x="-2" y="-2" transform="matrix(1 0 0 -1 225.807 599.3199)" style="overflow:visible;"/>
	
		<use xlink:href="#Sparkle"  width="4" height="4" x="-2" y="-2" transform="matrix(1 0 0 -1 105.7502 700.3203)" style="overflow:visible;"/>
	
		<use xlink:href="#Sparkle"  width="4" height="4" x="-2" y="-2" transform="matrix(1 0 0 -1 109.4827 694.3132)" style="overflow:visible;"/>
	
		<use xlink:href="#Sparkle"  width="4" height="4" x="-2" y="-2" transform="matrix(1 0 0 -1 274.5894 801.7672)" style="overflow:visible;"/>
	
		<use xlink:href="#Sparkle"  width="4" height="4" x="-2" y="-2" transform="matrix(1 0 0 -1 677.4866 392.8975)" style="overflow:visible;"/>
	
		<use xlink:href="#Sparkle"  width="4" height="4" x="-2" y="-2" transform="matrix(1 0 0 -1 509.1263 354.7701)" style="overflow:visible;"/>
	
		<use xlink:href="#Sparkle"  width="4" height="4" x="-2" y="-2" transform="matrix(1 0 0 -1 385.2013 302.5226)" style="overflow:visible;"/>
	
		<use xlink:href="#Sparkle"  width="4" height="4" x="-2" y="-2" transform="matrix(1 0 0 -1 357.6892 302.4971)" style="overflow:visible;"/>
	
		<use xlink:href="#Sparkle"  width="4" height="4" x="-2" y="-2" transform="matrix(1 0 0 -1 334.3384 418.7932)" style="overflow:visible;"/>
	
		<use xlink:href="#Sparkle"  width="4" height="4" x="-2" y="-2" transform="matrix(1 0 0 -1 291.2101 523.0045)" style="overflow:visible;"/>
	
		<use xlink:href="#Sparkle"  width="4" height="4" x="-2" y="-2" transform="matrix(1 0 0 -1 287.2315 530.9865)" style="overflow:visible;"/>
	
		<use xlink:href="#Sparkle"  width="4" height="4" x="-2" y="-2" transform="matrix(1 0 0 -1 93.0681 67.6294)" style="overflow:visible;"/>
	
		<use xlink:href="#Sparkle"  width="4" height="4" x="-2" y="-2" transform="matrix(1 0 0 -1 122.5994 69.5729)" style="overflow:visible;"/>
	
		<use xlink:href="#Sparkle"  width="4" height="4" x="-2" y="-2" transform="matrix(1 0 0 -1 346.2919 69.7184)" style="overflow:visible;"/>
	
		<use xlink:href="#Sparkle"  width="4" height="4" x="-2" y="-2" transform="matrix(1 0 0 -1 459.494 69.3677)" style="overflow:visible;"/>
	
		<use xlink:href="#Sparkle"  width="4" height="4" x="-2" y="-2" transform="matrix(1 0 0 -1 472.459 71.9789)" style="overflow:visible;"/>
	
		<use xlink:href="#Sparkle"  width="4" height="4" x="-2" y="-2" transform="matrix(1 0 0 -1 196.2971 857.8169)" style="overflow:visible;"/>
	
		<use xlink:href="#Sparkle"  width="4" height="4" x="-2" y="-2" transform="matrix(1 0 0 -1 111.9096 901.6821)" style="overflow:visible;"/>
	
		<use xlink:href="#Sparkle"  width="4" height="4" x="-2" y="-2" transform="matrix(1 0 0 -1 73.5233 946.1694)" style="overflow:visible;"/>
	
		<use xlink:href="#Sparkle"  width="4" height="4" x="-2" y="-2" transform="matrix(1 0 0 -1 1141.3885 66.8991)" style="overflow:visible;"/>
	
		<use xlink:href="#Sparkle"  width="4" height="4" x="-2" y="-2" transform="matrix(1 0 0 -1 1139.1052 86.8747)" style="overflow:visible;"/>
	
		<use xlink:href="#Sparkle"  width="4" height="4" x="-2" y="-2" transform="matrix(1 0 0 -1 1137.1344 220.7641)" style="overflow:visible;"/>
	
		<use xlink:href="#Sparkle"  width="4" height="4" x="-2" y="-2" transform="matrix(1 0 0 -1 1249.6328 348.4969)" style="overflow:visible;"/>
	
		<use xlink:href="#Sparkle"  width="4" height="4" x="-2" y="-2" transform="matrix(1 0 0 -1 1448.6569 436.3108)" style="overflow:visible;"/>
	
		<use xlink:href="#Sparkle"  width="4" height="4" x="-2" y="-2" transform="matrix(1 0 0 -1 1475.0149 450.6526)" style="overflow:visible;"/>
	
		<use xlink:href="#Sparkle"  width="4" height="4" x="-2" y="-2" transform="matrix(1 0 0 -1 1469.7999 452.3096)" style="overflow:visible;"/>
	
		<use xlink:href="#Sparkle"  width="4" height="4" x="-2" y="-2" transform="matrix(1 0 0 -1 1635.8589 79.9705)" style="overflow:visible;"/>
	
		<use xlink:href="#Sparkle"  width="4" height="4" x="-2" y="-2" transform="matrix(1 0 0 -1 1670.2153 140.5654)" style="overflow:visible;"/>
	
		<use xlink:href="#Sparkle"  width="4" height="4" x="-2" y="-2" transform="matrix(1 0 0 -1 1786.131 378.7755)" style="overflow:visible;"/>
	
		<use xlink:href="#Sparkle"  width="4" height="4" x="-2" y="-2" transform="matrix(1 0 0 -1 1838.2056 507.1137)" style="overflow:visible;"/>
	
		<use xlink:href="#Sparkle"  width="4" height="4" x="-2" y="-2" transform="matrix(1 0 0 -1 1714.02 709.0616)" style="overflow:visible;"/>
	
		<use xlink:href="#Sparkle"  width="4" height="4" x="-2" y="-2" transform="matrix(1 0 0 -1 1709.9828 767.7162)" style="overflow:visible;"/>
	
		<use xlink:href="#Sparkle"  width="4" height="4" x="-2" y="-2" transform="matrix(1 0 0 -1 1657.9678 915.7702)" style="overflow:visible;"/>
	
		<use xlink:href="#Sparkle"  width="4" height="4" x="-2" y="-2" transform="matrix(1 0 0 -1 1565.6442 957.9736)" style="overflow:visible;"/>
	
		<use xlink:href="#Sparkle"  width="4" height="4" x="-2" y="-2" transform="matrix(1 0 0 -1 1469.2871 941.895)" style="overflow:visible;"/>
	
		<use xlink:href="#Sparkle"  width="4" height="4" x="-2" y="-2" transform="matrix(1 0 0 -1 1353.9324 752.0648)" style="overflow:visible;"/>
	
		<use xlink:href="#Sparkle"  width="4" height="4" x="-2" y="-2" transform="matrix(1 0 0 -1 1330.8071 735.2668)" style="overflow:visible;"/>
	
		<use xlink:href="#Sparkle"  width="4" height="4" x="-2" y="-2" transform="matrix(1 0 0 -1 1229.2423 511.4867)" style="overflow:visible;"/>
	
		<use xlink:href="#Sparkle"  width="4" height="4" x="-2" y="-2" transform="matrix(1 0 0 -1 1229.0807 383.3644)" style="overflow:visible;"/>
	
		<use xlink:href="#Sparkle"  width="4" height="4" x="-2" y="-2" transform="matrix(1 0 0 -1 1537.8525 194.4902)" style="overflow:visible;"/>
	
		<use xlink:href="#Sparkle"  width="4" height="4" x="-2" y="-2" transform="matrix(1 0 0 -1 1401.667 174.2846)" style="overflow:visible;"/>
	
		<use xlink:href="#Sparkle"  width="4" height="4" x="-2" y="-2" transform="matrix(1 0 0 -1 1199.7325 144.3798)" style="overflow:visible;"/>
	
		<use xlink:href="#Sparkle"  width="4" height="4" x="-2" y="-2" transform="matrix(1 0 0 -1 869.3966 47.9715)" style="overflow:visible;"/>
	
		<use xlink:href="#Sparkle"  width="4" height="4" x="-2" y="-2" transform="matrix(1 0 0 -1 783.0972 74.0423)" style="overflow:visible;"/>
	
		<use xlink:href="#Sparkle"  width="4" height="4" x="-2" y="-2" transform="matrix(1 0 0 -1 721.4158 222.4679)" style="overflow:visible;"/>
	
		<use xlink:href="#Sparkle"  width="4" height="4" x="-2" y="-2" transform="matrix(1 0 0 -1 656.6854 637.8863)" style="overflow:visible;"/>
	
		<use xlink:href="#Sparkle"  width="4" height="4" x="-2" y="-2" transform="matrix(1 0 0 -1 654.3803 630.502)" style="overflow:visible;"/>
	
		<use xlink:href="#Sparkle"  width="4" height="4" x="-2" y="-2" transform="matrix(1 0 0 -1 661.8888 632.1938)" style="overflow:visible;"/>
	
		<use xlink:href="#Sparkle"  width="4" height="4" x="-2" y="-2" transform="matrix(1 0 0 -1 402.9976 930.2971)" style="overflow:visible;"/>
	
		<use xlink:href="#Sparkle"  width="4" height="4" x="-2" y="-2" transform="matrix(1 0 0 -1 198.4045 1013.5878)" style="overflow:visible;"/>
	
		<use xlink:href="#Sparkle"  width="4" height="4" x="-2" y="-2" transform="matrix(1 0 0 -1 198.5812 1021.2508)" style="overflow:visible;"/>
	
		<use xlink:href="#Sparkle"  width="4" height="4" x="-2" y="-2" transform="matrix(1 0 0 -1 568.7926 645.6671)" style="overflow:visible;"/>
	
		<use xlink:href="#Sparkle"  width="4" height="4" x="-2" y="-2" transform="matrix(1 0 0 -1 599.3431 882.1965)" style="overflow:visible;"/>
	
		<use xlink:href="#Sparkle"  width="4" height="4" x="-2" y="-2" transform="matrix(1 0 0 -1 430.981 771.9146)" style="overflow:visible;"/>
	
		<use xlink:href="#Sparkle"  width="4" height="4" x="-2" y="-2" transform="matrix(1 0 0 -1 340.6607 651.5971)" style="overflow:visible;"/>
</g>
<path class="st0" d="M338,498.5"/>
<linearGradient id="SVGID_1_" gradientUnits="userSpaceOnUse" x1="1589.7998" y1="715.809" x2="1584.8004" y2="756.5261">
	<stop  offset="0" style="stop-color:#DCC587"/>
	<stop  offset="0.5" style="stop-color:#DCC587;stop-opacity:0"/>
</linearGradient>
<path class="st3" d="M1677,749.1c-5-15.5-27.9-27.1-55.5-27.1c-2.8,0-5.5,0.1-8.2,0.4c-12.6-5.2-29.4-8.4-47.8-8.4
	c-38.9,0-70.5,14.1-70.5,31.5"/>
<linearGradient id="SVGID_2_" gradientUnits="userSpaceOnUse" x1="1564" y1="125" x2="1564" y2="307">
	<stop  offset="0" style="stop-color:#DCC587"/>
	<stop  offset="0.5" style="stop-color:#DCC587;stop-opacity:0"/>
</linearGradient>
<path class="st4" d="M1831,307c0-53-43-96-96-96c-14.6,0-28.4,3.3-40.8,9.1c-16.4-32.1-49.7-54.1-88.2-54.1
	c-19.5,0-37.7,5.6-53,15.4c-26-34.2-67.2-56.4-113.5-56.4c-78.7,0-142.5,63.8-142.5,142.5"/>
<linearGradient id="SVGID_3_" gradientUnits="userSpaceOnUse" x1="457" y1="217" x2="457" y2="483">
	<stop  offset="0" style="stop-color:#DCC587"/>
	<stop  offset="0.5" style="stop-color:#DCC587;stop-opacity:0"/>
</linearGradient>
<path class="st5" d="M777.4,332c1.1-3.7,1.6-7.6,1.6-11.5c0-42.2-64.5-76.5-144-76.5c-28.9,0-55.8,4.5-78.4,12.3
	c-37.5-22.6-98.8-37.3-168.1-37.3c-31.1,0-60.6,3-87.1,8.3c-24.7-6.5-53.6-10.3-84.4-10.3c-91.7,0-166,33.1-166,74s74.3,74,166,74
	c4.2,0,8.4-0.1,12.5-0.2c6,3.1,12.6,6.1,19.5,8.8c-20.2,11.3-32,25-32,39.9c0,38.4,79.2,69.5,177,69.5c71.1,0,132.4-16.5,160.5-40.2
	C587.2,453.5,630.1,460,677,460c102.7,0,186-31.1,186-69.5C863,365.9,828.9,344.3,777.4,332z"/>
<g class="st6">
	<linearGradient id="SVGID_4_" gradientUnits="userSpaceOnUse" x1="277" y1="628" x2="277" y2="790">
		<stop  offset="0" style="stop-color:#DCC587"/>
		<stop  offset="0.5" style="stop-color:#DCC587;stop-opacity:0"/>
	</linearGradient>
	<circle class="st7" cx="277" cy="709" r="81"/>
	<path class="st8" d="M405,692.4C405,692.4,405,692.5,405,692.4c0,9.2-57.3,16.6-128,16.6s-128-7.4-128-16.5c0,0,0-0.1,0-0.1
		c-12.7,4.9-20,10.5-20,16.6c0,18.2,66.3,33,148,33s148-14.8,148-33C425,703,417.7,697.3,405,692.4z"/>
</g>
<g>
	
		<use xlink:href="#Sparkle"  width="4" height="4" x="-2" y="-2" transform="matrix(1 0 0 -1 943.2618 634.9763)" style="overflow:visible;"/>
	
		<use xlink:href="#Sparkle"  width="4" height="4" x="-2" y="-2" transform="matrix(1 0 0 -1 847.6224 907.5605)" style="overflow:visible;"/>
	
		<use xlink:href="#Sparkle"  width="4" height="4" x="-2" y="-2" transform="matrix(1 0 0 -1 840.2247 907.581)" style="overflow:visible;"/>
	
		<use xlink:href="#Sparkle"  width="4" height="4" x="-2" y="-2" transform="matrix(1 0 0 -1 838.8339 412.0382)" style="overflow:visible;"/>
	
		<use xlink:href="#Sparkle"  width="4" height="4" x="-2" y="-2" transform="matrix(1 0 0 -1 1165.3866 937.5355)" style="overflow:visible;"/>
	
		<use xlink:href="#Sparkle"  width="4" height="4" x="-2" y="-2" transform="matrix(1 0 0 -1 692.4637 927.6769)" style="overflow:visible;"/>
	
		<use xlink:href="#Sparkle"  width="4" height="4" x="-2" y="-2" transform="matrix(1 0 0 -1 1035.3821 771.2001)" style="overflow:visible;"/>
	
		<use xlink:href="#Sparkle"  width="4" height="4" x="-2" y="-2" transform="matrix(1 0 0 -1 1053.5165 396.053)" style="overflow:visible;"/>
	
		<use xlink:href="#Sparkle"  width="4" height="4" x="-2" y="-2" transform="matrix(1 0 0 -1 939.0284 276.0644)" style="overflow:visible;"/>
	
		<use xlink:href="#Sparkle"  width="4" height="4" x="-2" y="-2" transform="matrix(1 0 0 -1 1005.2454 160.0068)" style="overflow:visible;"/>
	
		<use xlink:href="#Sparkle"  width="4" height="4" x="-2" y="-2" transform="matrix(1 0 0 -1 820.761 669.1508)" style="overflow:visible;"/>
	
		<use xlink:href="#Sparkle"  width="4" height="4" x="-2" y="-2" transform="matrix(1 0 0 -1 708.4552 821.1436)" style="overflow:visible;"/>
	
		<use xlink:href="#Sparkle"  width="4" height="4" x="-2" y="-2" transform="matrix(1 0 0 -1 588.3464 1003.7273)" style="overflow:visible;"/>
	
		<use xlink:href="#Sparkle"  width="4" height="4" x="-2" y="-2" transform="matrix(1 0 0 -1 1012.3418 1024.4235)" style="overflow:visible;"/>
	
		<use xlink:href="#Sparkle"  width="4" height="4" x="-2" y="-2" transform="matrix(1 0 0 -1 1010.0269 1019.2742)" style="overflow:visible;"/>
	
		<use xlink:href="#Sparkle"  width="4" height="4" x="-2" y="-2" transform="matrix(1 0 0 -1 1339.8265 1025.6727)" style="overflow:visible;"/>
	
		<use xlink:href="#Sparkle"  width="4" height="4" x="-2" y="-2" transform="matrix(1 0 0 -1 1275.7247 892.7111)" style="overflow:visible;"/>
	
		<use xlink:href="#Sparkle"  width="4" height="4" x="-2" y="-2" transform="matrix(1 0 0 -1 1267.9911 893.6321)" style="overflow:visible;"/>
	
		<use xlink:href="#Sparkle"  width="4" height="4" x="-2" y="-2" transform="matrix(1 0 0 -1 1153.8168 662.8904)" style="overflow:visible;"/>
	
		<use xlink:href="#Sparkle"  width="4" height="4" x="-2" y="-2" transform="matrix(1 0 0 -1 1073.9957 491.0936)" style="overflow:visible;"/>
	
		<use xlink:href="#Sparkle"  width="4" height="4" x="-2" y="-2" transform="matrix(1 0 0 -1 1069.3254 494.1935)" style="overflow:visible;"/>
	
		<use xlink:href="#Sparkle"  width="4" height="4" x="-2" y="-2" transform="matrix(1 0 0 -1 859.0859 510.5773)" style="overflow:visible;"/>
	
		<use xlink:href="#Sparkle"  width="4" height="4" x="-2" y="-2" transform="matrix(1 0 0 -1 735.4434 535.4799)" style="overflow:visible;"/>
	
		<use xlink:href="#Sparkle"  width="4" height="4" x="-2" y="-2" transform="matrix(1 0 0 -1 741.5521 538.0192)" style="overflow:visible;"/>
	
		<use xlink:href="#Sparkle"  width="4" height="4" x="-2" y="-2" transform="matrix(1 0 0 -1 639.2269 474.3586)" style="overflow:visible;"/>
	
		<use xlink:href="#Sparkle"  width="4" height="4" x="-2" y="-2" transform="matrix(1 0 0 -1 622.822 474.4118)" style="overflow:visible;"/>
	
		<use xlink:href="#Sparkle"  width="4" height="4" x="-2" y="-2" transform="matrix(1 0 0 -1 554.0687 793.0892)" style="overflow:visible;"/>
	
		<use xlink:href="#Sparkle"  width="4" height="4" x="-2" y="-2" transform="matrix(1 0 0 -1 404.2237 1023.4586)" style="overflow:visible;"/>
</g>
<linearGradient id="SVGID_5_" gradientUnits="userSpaceOnUse" x1="1066.5" y1="421" x2="1066.5" y2="563">
	<stop  offset="0" style="stop-color:#DCC587"/>
	<stop  offset="0.5" style="stop-color:#DCC587;stop-opacity:0"/>
</linearGradient>
<path class="st9" d="M1237.3,482.4c0.6-2,0.9-4,0.9-6.1c0-22.6-34.4-40.8-76.8-40.8c-15.4,0-29.8,2.4-41.8,6.6
	c-20-12.1-52.7-19.9-89.7-19.9c-16.6,0-32.3,1.6-46.4,4.4c-13.2-3.5-28.6-5.5-45-5.5c-48.9,0-88.5,17.7-88.5,39.5
	s39.6,39.5,88.5,39.5c2.2,0,4.5,0,6.7-0.1c3.2,1.7,6.7,3.2,10.4,4.7c-10.8,6-17.1,13.4-17.1,21.3c0,20.5,42.3,37.1,94.4,37.1
	c37.9,0,70.6-8.8,85.6-21.5c17.4,5.7,40.3,9.2,65.3,9.2c54.8,0,99.2-16.6,99.2-37.1C1283,500.5,1264.8,489,1237.3,482.4z"/>
<linearGradient id="SVGID_6_" gradientUnits="userSpaceOnUse" x1="925.5" y1="826" x2="925.5" y2="1070">
	<stop  offset="0" style="stop-color:#DCC587"/>
	<stop  offset="0.5" style="stop-color:#DCC587;stop-opacity:0"/>
</linearGradient>
<path class="st10" d="M1152.4,931.5c0.8-3.4,1.1-7,1.1-10.5c0-38.8-45.7-70.2-102-70.2c-20.5,0-39.5,4.2-55.5,11.3
	c-26.5-20.7-70-34.2-119.1-34.2c-22,0-42.9,2.7-61.7,7.6c-17.5-6-38-9.4-59.8-9.4c-64.9,0-117.5,30.4-117.5,67.9
	s52.6,67.9,117.5,67.9c3,0,5.9-0.1,8.9-0.2c4.3,2.9,8.9,5.6,13.8,8.1c-14.3,10.4-22.7,23-22.7,36.6c0,35.2,56.1,63.8,125.3,63.8
	c50.3,0,93.7-15.1,113.7-36.9c23.2,9.8,53.5,15.8,86.7,15.8c72.7,0,131.7-28.5,131.7-63.8C1213,962.6,1188.8,942.8,1152.4,931.5z"/>
</svg>
